<svg width="90" height="25" viewBox="0 0 90 25" fill="none" xmlns="http://www.w3.org/2000/svg">
<g filter="url(#filter0_d_1_15)">
<path d="M4.232 17V1.16H7.422L13.164 8.002L18.884 1.16H22.096V17H19.17V5.384L13.164 12.534L7.136 5.406V17H4.232ZM27.5682 17C27.0108 17 26.5048 16.8607 26.0502 16.582C25.5955 16.3033 25.2288 15.9367 24.9502 15.482C24.6715 15.0273 24.5322 14.5213 24.5322 13.964V7.276C24.5322 6.71867 24.6715 6.21267 24.9502 5.758C25.2288 5.30333 25.5955 4.93667 26.0502 4.658C26.5048 4.37933 27.0108 4.24 27.5682 4.24H34.4542C35.0115 4.24 35.5175 4.37933 35.9722 4.658C36.4415 4.93667 36.8082 5.30333 37.0722 5.758C37.3508 6.21267 37.4902 6.71867 37.4902 7.276V12.072H27.4142V13.854C27.4142 13.9273 27.4362 13.9933 27.4802 14.052C27.5388 14.096 27.6048 14.118 27.6782 14.118H37.4902V17H27.5682ZM27.4142 9.476H34.6082V7.386C34.6082 7.31267 34.5788 7.254 34.5202 7.21C34.4762 7.15133 34.4175 7.122 34.3442 7.122H27.6782C27.6048 7.122 27.5388 7.15133 27.4802 7.21C27.4362 7.254 27.4142 7.31267 27.4142 7.386V9.476ZM42.8446 17C42.2872 17 41.7812 16.8607 41.3266 16.582C40.8719 16.3033 40.5052 15.9367 40.2266 15.482C39.9479 15.0273 39.8086 14.5213 39.8086 13.964V0.324H42.6906V4.24H47.6626V7.122H42.6906V13.854C42.6906 13.9273 42.7126 13.9933 42.7566 14.052C42.8152 14.096 42.8812 14.118 42.9546 14.118H47.6626V17H42.8446ZM52.9202 17C52.3629 17 51.8496 16.8607 51.3802 16.582C50.9256 16.3033 50.5589 15.9367 50.2802 15.482C50.0162 15.0273 49.8842 14.5213 49.8842 13.964V9.168H59.9602V7.386C59.9602 7.31267 59.9309 7.254 59.8722 7.21C59.8282 7.15133 59.7696 7.122 59.6962 7.122H49.8842V4.24H59.8062C60.3636 4.24 60.8696 4.37933 61.3242 4.658C61.7936 4.93667 62.1602 5.30333 62.4242 5.758C62.7029 6.21267 62.8422 6.71867 62.8422 7.276V17H52.9202ZM53.0302 14.118H59.9602V11.764H52.7662V13.854C52.7662 13.9273 52.7882 13.9933 52.8322 14.052C52.8909 14.096 52.9569 14.118 53.0302 14.118ZM73.9596 17L64.7856 1.16H68.1736L75.2576 13.48L82.3636 1.16H85.7296L76.5556 17H73.9596Z" fill="white"/>
</g>
<defs>
<filter id="filter0_d_1_15" x="0.231995" y="0.323975" width="89.4976" height="24.676" filterUnits="userSpaceOnUse" color-interpolation-filters="sRGB">
<feFlood flood-opacity="0" result="BackgroundImageFix"/>
<feColorMatrix in="SourceAlpha" type="matrix" values="0 0 0 0 0 0 0 0 0 0 0 0 0 0 0 0 0 0 127 0" result="hardAlpha"/>
<feOffset dy="4"/>
<feGaussianBlur stdDeviation="2"/>
<feComposite in2="hardAlpha" operator="out"/>
<feColorMatrix type="matrix" values="0 0 0 0 0 0 0 0 0 0 0 0 0 0 0 0 0 0 0.25 0"/>
<feBlend mode="normal" in2="BackgroundImageFix" result="effect1_dropShadow_1_15"/>
<feBlend mode="normal" in="SourceGraphic" in2="effect1_dropShadow_1_15" result="shape"/>
</filter>
</defs>
</svg>
